<svg xmlns="http://www.w3.org/2000/svg" width="32" height="32" viewBox="0 0 32 32" fill="none">
<g clip-path="url(#clip0_521_732)">
<path d="M16 32C18.2091 32 20 30.2091 20 28C20 25.7909 18.2091 24 16 24C13.7909 24 12 25.7909 12 28C12 30.2091 13.7909 32 16 32Z" fill="white"/>
<path d="M29.999 15.999C29.997 8.26702 23.731 2.00002 15.999 1.99902C8.26702 2.00002 2.00002 8.26702 1.99902 15.999C1.99902 19.093 3.01402 21.963 4.72002 24.28L2.00002 27H10V19L7.59602 21.404C6.58902 19.845 6.00102 17.998 6.00002 15.999C6.01002 10.478 10.479 6.01002 16 5.99902C21.521 6.00902 25.989 10.478 25.999 15.999C26.001 19.482 24.224 22.534 21.52 24.332L23.735 27.666C27.504 25.164 29.999 20.866 29.999 15.999Z" fill="white"/>
</g>
<defs>
<clipPath id="clip0_521_732">
<rect width="32" height="32" fill="white"/>
</clipPath>
</defs>
</svg>