<?xml version="1.0" encoding="utf-8"?>
<!-- Generator: Adobe Illustrator 27.9.0, SVG Export Plug-In . SVG Version: 6.00 Build 0)  -->
<svg version="1.1" id="Layer_1" xmlns="http://www.w3.org/2000/svg" xmlns:xlink="http://www.w3.org/1999/xlink" x="0px" y="0px"
	 viewBox="0 0 32 32" style="enable-background:new 0 0 32 32;" xml:space="preserve">
<style type="text/css">
	.st0{fill:#FFFFFF;}
</style>
<g transform="translate(1.4065934065934016 1.4065934065934016) scale(2.81 2.81)">
	<path class="st0" d="M7.7,10.8H2.7c-0.6,0-1.1-0.5-1.1-1L1.1,1.4c0-0.1,0-0.2,0.1-0.3C1.3,1,1.4,1,1.5,1h7.4C9,1,9.1,1,9.1,1.1
		c0.1,0.1,0.1,0.2,0.1,0.3L8.8,9.8C8.7,10.4,8.2,10.8,7.7,10.8z M1.9,1.7l0.5,8c0,0.2,0.2,0.3,0.4,0.3h4.9C7.8,10.1,8,9.9,8,9.7
		l0.5-8C8.5,1.7,1.9,1.7,1.9,1.7z"/>
	<path class="st0" d="M9.6,1.7H0.7c-0.2,0-0.4-0.2-0.4-0.4S0.5,1,0.7,1h8.9C9.9,1,10,1.2,10,1.4S9.9,1.7,9.6,1.7z"/>
	<path class="st0" d="M6.9,1.7H3.5c-0.2,0-0.4-0.2-0.4-0.4V0.7c0-0.6,0.5-1.1,1.1-1.1h2c0.6,0,1.1,0.5,1.1,1.1v0.7
		C7.3,1.6,7.1,1.7,6.9,1.7z M3.8,1h2.7V0.7c0-0.2-0.2-0.3-0.3-0.3h-2C4,0.3,3.8,0.5,3.8,0.7L3.8,1L3.8,1z"/>
	<path class="st0" d="M6.9,8.9C6.8,8.9,6.8,8.9,6.9,8.9c-0.2,0-0.4-0.2-0.4-0.4l0.3-5.3c0-0.2,0.2-0.4,0.4-0.4
		c0.2,0,0.4,0.2,0.4,0.4L7.2,8.6C7.2,8.8,7.1,8.9,6.9,8.9z"/>
	<path class="st0" d="M3.5,8.9c-0.2,0-0.4-0.2-0.4-0.4L2.8,3.3c0-0.2,0.1-0.4,0.4-0.4c0.2,0,0.4,0.1,0.4,0.4l0.3,5.3
		C3.9,8.7,3.7,8.9,3.5,8.9C3.5,8.9,3.5,8.9,3.5,8.9z"/>
	<path class="st0" d="M5.2,8.9C5,8.9,4.8,8.8,4.8,8.6V3.3c0-0.2,0.2-0.4,0.4-0.4s0.4,0.2,0.4,0.4v5.3C5.6,8.8,5.4,8.9,5.2,8.9z"/>
</g>
</svg>
